<svg xmlns="http://www.w3.org/2000/svg" viewBox="0 0 620 520" role="img" aria-labelledby="title desc">
  <title id="title">Purple House wooden dice game box</title>
  <desc id="desc">A stylized wooden box with a three by three game grid, an emblem on the front, and accurate black and white dice.</desc>
  <defs>
    <linearGradient id="woodTop" x1="0" x2="1" y1="0" y2="1">
      <stop offset="0" stop-color="#f0bd68"/>
      <stop offset=".5" stop-color="#c87d31"/>
      <stop offset="1" stop-color="#8a481e"/>
    </linearGradient>
    <linearGradient id="woodFront" x1="0" x2="1" y1="0" y2="1">
      <stop offset="0" stop-color="#d98d3a"/>
      <stop offset=".58" stop-color="#a96225"/>
      <stop offset="1" stop-color="#6b3517"/>
    </linearGradient>
    <linearGradient id="woodSide" x1="0" x2="1" y1="0" y2="1">
      <stop offset="0" stop-color="#bf7130"/>
      <stop offset="1" stop-color="#7a3b18"/>
    </linearGradient>
    <linearGradient id="whiteDie" x1="0" x2="1" y1="0" y2="1">
      <stop offset="0" stop-color="#fff9eb"/>
      <stop offset="1" stop-color="#dbcbb0"/>
    </linearGradient>
    <linearGradient id="blackDie" x1="0" x2="1" y1="0" y2="1">
      <stop offset="0" stop-color="#2a2d31"/>
      <stop offset="1" stop-color="#070809"/>
    </linearGradient>
    <filter id="shadow" x="-20%" y="-20%" width="140%" height="145%">
      <feDropShadow dx="0" dy="16" stdDeviation="12" flood-color="#271407" flood-opacity=".24"/>
    </filter>
    <g id="pipBlack"><circle r="7" fill="#151719"/></g>
    <g id="pipWhite"><circle r="7" fill="#fff9eb" stroke="#ded6ca" stroke-width="1.5"/></g>
  </defs>

  <g filter="url(#shadow)">
    <polygon points="108,174 340,66 548,164 306,292" fill="url(#woodTop)" stroke="#21130a" stroke-width="8" stroke-linejoin="round"/>
    <polygon points="108,174 306,292 306,438 108,320" fill="url(#woodFront)" stroke="#21130a" stroke-width="8" stroke-linejoin="round"/>
    <polygon points="306,292 548,164 548,310 306,438" fill="url(#woodSide)" stroke="#21130a" stroke-width="8" stroke-linejoin="round"/>

    <g opacity=".28" stroke="#5d2f14" stroke-width="2">
      <path d="M130 203l176 105M151 239l154 91M172 276l132 78M330 309l196-103M331 346l196-103M331 384l195-103"/>
      <path d="M160 171l225-103M207 198l226-104M254 225l226-104M118 215l190 111M118 255l188 112"/>
    </g>

    <g fill="none" stroke="#3b210f" stroke-width="8" stroke-linejoin="round">
      <path d="M171 179l201-91"/>
      <path d="M227 212l202-94"/>
      <path d="M285 246l203-98"/>
      <path d="M177 140l232 113"/>
      <path d="M236 112l233 112"/>
      <path d="M295 85l233 109"/>
    </g>
    <g fill="#d99643" stroke="#241307" stroke-width="5" stroke-linejoin="round">
      <polygon points="163,171 220,145 274,171 217,199"/>
      <polygon points="222,143 281,116 335,142 276,170"/>
      <polygon points="281,115 341,88 394,114 335,141"/>
      <polygon points="222,202 280,174 335,202 276,232"/>
      <polygon points="282,172 341,144 396,172 336,201"/>
      <polygon points="342,143 403,116 456,143 397,171"/>
      <polygon points="282,236 340,206 397,237 337,268"/>
      <polygon points="342,204 403,174 459,205 398,236"/>
      <polygon points="404,173 466,144 520,174 460,204"/>
    </g>

    <g stroke="#251408" stroke-width="5" stroke-linejoin="round">
      <rect x="155" y="255" width="118" height="90" rx="11" fill="#bb6d2b"/>
      <path d="M165 269h96v62h-96z" fill="#c87b34"/>
      <circle cx="372" cy="333" r="45" fill="#e8d8b7"/>
      <circle cx="372" cy="333" r="34" fill="#f6edcf"/>
      <path d="M346 332c16-19 34-22 53-2M349 346c18 12 34 12 49-1" fill="none" stroke="#2c190e" stroke-width="4" stroke-linecap="round"/>
      <text x="372" y="327" text-anchor="middle" font-family="Georgia, serif" font-size="12" font-weight="700" fill="#2c190e">Purple House</text>
      <text x="372" y="344" text-anchor="middle" font-family="Georgia, serif" font-size="10" fill="#2c190e">Even &amp; Odd</text>
      <circle cx="96" cy="232" r="28" fill="#dfaa3d"/>
      <circle cx="96" cy="232" r="17" fill="#7b421c"/>
    </g>
  </g>

  <g transform="translate(155 83)" stroke="#21130a" stroke-width="5" stroke-linejoin="round" filter="url(#shadow)">
    <polygon points="0,60 54,34 109,62 55,91" fill="#fff8e8"/>
    <polygon points="0,60 55,91 55,154 0,121" fill="url(#whiteDie)"/>
    <polygon points="55,91 109,62 109,124 55,154" fill="#d8c8ac"/>
    <use href="#pipBlack" x="35" y="56"/>
    <use href="#pipBlack" x="55" y="63"/>
    <use href="#pipBlack" x="75" y="70"/>
    <use href="#pipBlack" x="22" y="98"/>
    <use href="#pipBlack" x="35" y="125"/>
    <use href="#pipBlack" x="78" y="97"/>
    <use href="#pipBlack" x="92" y="121"/>
  </g>

  <g transform="translate(366 83)" stroke="#21130a" stroke-width="5" stroke-linejoin="round" filter="url(#shadow)">
    <polygon points="0,60 55,33 111,61 56,91" fill="#202326"/>
    <polygon points="0,60 56,91 56,154 0,122" fill="url(#blackDie)"/>
    <polygon points="56,91 111,61 111,124 56,154" fill="#151719"/>
    <use href="#pipWhite" x="34" y="55"/>
    <use href="#pipWhite" x="76" y="55"/>
    <use href="#pipWhite" x="35" y="76"/>
    <use href="#pipWhite" x="77" y="76"/>
    <use href="#pipWhite" x="75" y="100"/>
    <use href="#pipWhite" x="97" y="88"/>
    <use href="#pipWhite" x="86" y="112"/>
    <use href="#pipWhite" x="75" y="134"/>
    <use href="#pipWhite" x="97" y="122"/>
  </g>
</svg>
